<svg width="73" height="74" viewBox="0 0 73 74" fill="none" xmlns="http://www.w3.org/2000/svg">
<g clip-path="url(#clip0_1_4854)">
<path d="M67.2847 23.211H50.0852V5.75265C50.0852 3.12254 47.9555 0.979492 45.3178 0.979492H26.4967C23.8697 0.979492 21.7292 3.11172 21.7292 5.75265V15.1366H29.0696V8.32865H42.7341V43.7431H36.7018V51.0923H50.0744V30.5601H64.701V43.7431H57.3823V51.0923H67.2739C69.9008 51.0923 72.0413 48.96 72.0413 46.3191V27.9841C72.0413 25.354 69.9117 23.211 67.2847 23.211Z" fill="#247CFF"/>
<path d="M42.7447 65.6715H29.0803V30.5601H35.2206V23.2109H21.7399V43.7323H7.34033V30.5601H14.5401V23.2109H4.76743C2.12967 23.2109 0 25.354 0 27.9841V46.3191C0 48.9492 2.12967 51.0923 4.76743 51.0923H21.7399V68.2583C21.7399 70.8884 23.8696 73.0315 26.5074 73.0315H45.3284C47.9554 73.0315 50.0959 70.8993 50.0959 68.2583V58.3873H42.7555V65.6715H42.7447Z" fill="#247CFF"/>
</g>
<defs>
<clipPath id="clip0_1_4854">
<rect width="72.0412" height="72.0412" fill="white" transform="translate(0 0.979492)"/>
</clipPath>
</defs>
</svg>
