<svg width="16" height="16" viewBox="0 0 16 16" fill="none" xmlns="http://www.w3.org/2000/svg">
    <path
        d="M14.1018 6.86124L12.2821 8.61486C12.0323 8.85528 11.8626 9.33611 11.9144 9.68023L12.1973 11.7356C12.3811 13.0508 11.5656 13.6212 10.3871 13.0084L8.38834 11.9618C8.05364 11.7874 7.50681 11.7968 7.18154 11.9901L5.43263 13.0131C4.05142 13.8192 3.22646 13.2111 3.59415 11.6554L4.10798 9.48225C4.20227 9.08626 4.02785 8.54415 3.73086 8.27545L2.07623 6.7811C0.893006 5.71101 1.22299 4.73991 2.81634 4.61735L4.83395 4.4665C5.21107 4.43822 5.66833 4.14123 5.84275 3.80653L6.88927 1.79835C7.50681 0.624553 8.50148 0.629267 9.10016 1.81249L10.0335 3.6604C10.1938 3.97153 10.5992 4.27322 10.9434 4.32508L13.4418 4.73049C14.79 4.95676 15.087 5.91371 14.1018 6.86124Z"
        fill="#FFD600" />
</svg>